<?xml version="1.0" standalone="no"?>
<!DOCTYPE svg PUBLIC "-//W3C//DTD SVG 20010904//EN"
 "http://www.w3.org/TR/2001/REC-SVG-20010904/DTD/svg10.dtd">
<svg version="1.0" xmlns="http://www.w3.org/2000/svg"
 width="600.000000pt" height="600.000000pt" viewBox="0 0 600.000000 600.000000"
 preserveAspectRatio="xMidYMid meet">
<metadata>
Created by potrace 1.11, written by Peter Selinger 2001-2013
</metadata>
<g transform="translate(0.000000,600.000000) scale(0.100000,-0.100000)"
fill="#000000" stroke="none">
<path d="M2852 5609 c-34 -13 -76 -42 -112 -77 -52 -50 -100 -129 -408 -662
-192 -333 -565 -978 -829 -1435 -1024 -1771 -1333 -2305 -1402 -2425 -39 -69
-79 -149 -88 -179 -35 -123 6 -269 101 -360 62 -58 111 -84 186 -100 41 -9
718 -11 2750 -9 l2695 3 58 29 c70 36 139 108 172 179 21 44 25 67 25 148 0
53 -5 111 -12 130 -6 19 -232 412 -501 874 -1475 2530 -1875 3217 -2026 3475
-179 308 -215 354 -309 398 -79 37 -221 42 -300 11z"/>
</g>
</svg>
