<?xml version="1.0" standalone="no"?>
<!DOCTYPE svg PUBLIC "-//W3C//DTD SVG 20010904//EN"
 "http://www.w3.org/TR/2001/REC-SVG-20010904/DTD/svg10.dtd">
<svg version="1.0" xmlns="http://www.w3.org/2000/svg"
 width="225.000000pt" height="225.000000pt" viewBox="0 0 225.000000 225.000000"
 preserveAspectRatio="xMidYMid meet">
<metadata>
Created by potrace 1.11, written by Peter Selinger 2001-2013
</metadata>
<g transform="translate(0.000000,225.000000) scale(0.100000,-0.100000)"
fill="#000000" stroke="none">
<path d="M1107 2210 c-35 -28 -37 -73 -3 -95 15 -10 67 -19 142 -26 65 -6 121
-12 123 -15 3 -3 -70 -80 -161 -171 l-166 -166 -28 20 c-50 36 -152 83 -211
98 -76 20 -238 19 -317 -1 -105 -27 -193 -80 -281 -168 -87 -87 -141 -180
-166 -286 -20 -82 -17 -253 5 -320 77 -233 253 -391 490 -439 l89 -18 18 -89
c49 -240 214 -422 444 -490 72 -21 257 -24 325 -4 196 54 369 220 434 414 58
171 31 375 -70 533 l-36 57 166 164 c92 90 169 162 172 160 2 -3 8 -60 14
-128 7 -91 14 -128 27 -142 23 -26 71 -20 94 12 17 24 17 36 3 210 -16 221
-19 237 -47 255 -24 15 -229 35 -362 35 -75 0 -85 -2 -99 -22 -23 -32 -20 -65
7 -82 12 -8 54 -17 92 -20 39 -4 94 -9 124 -12 l54 -6 -168 -168 -168 -168
-51 32 c-74 47 -141 73 -238 92 l-85 17 -13 71 c-16 92 -52 188 -94 252 l-34
51 168 168 168 168 6 -49 c3 -27 8 -83 12 -124 3 -41 12 -85 20 -97 26 -41 88
-25 106 27 8 23 -19 381 -31 412 -5 15 -18 31 -29 37 -10 5 -92 15 -183 20
-90 6 -180 14 -199 17 -27 4 -43 0 -63 -16z m-387 -470 c192 -30 359 -187 405
-381 22 -97 24 -94 -60 -122 -103 -34 -178 -80 -250 -153 -72 -72 -128 -165
-156 -256 -24 -78 -29 -80 -134 -53 -233 61 -392 283 -371 517 20 217 178 397
390 443 76 17 96 17 176 5z m638 -615 c233 -55 382 -244 382 -484 0 -133 -27
-210 -112 -313 -113 -137 -299 -202 -476 -164 -206 43 -364 215 -388 422 l-7
52 59 17 c81 23 180 76 241 130 71 62 145 177 178 274 30 91 26 89 123 66z
m-253 -52 c-45 -108 -149 -220 -249 -267 -90 -42 -93 -37 -41 63 20 37 59 90
88 118 60 60 160 123 194 123 23 0 23 0 8 -37z"/>
</g>
</svg>
